<svg xmlns="http://www.w3.org/2000/svg" viewBox="0 0 24 24">
  <rect width="24" height="24" rx="6" fill="#25D366"/>
  <path d="M12 4.5a7.5 7.5 0 00-6.27 11.62L4.5 19.5l3.5-1.17A7.5 7.5 0 1012 4.5zm0 13.5a6 6 0 01-3.1-.87l-.22-.13-2.08.66.7-2.03-.14-.23A6 6 0 1112 18zm3.3-4.45c-.16-.08-.95-.47-1.1-.52-.14-.05-.25-.08-.36.08-.1.16-.42.52-.51.63-.09.1-.19.12-.35.04-.95-.47-1.57-.84-2.2-1.91-.17-.28.17-.26.48-1 .05-.14.03-.26-.01-.37-.05-.1-.36-.88-.5-1.2-.13-.31-.27-.27-.36-.27h-.31c-.1 0-.28.04-.43.2-.14.16-.56.55-.56 1.33 0 .79.57 1.55.65 1.66.08.1 1.13 1.73 2.74 2.43.38.16.68.26.91.34.38.12.73.1 1 .06.31-.04.95-.39 1.08-.77.14-.37.14-.7.1-.77-.05-.07-.16-.11-.33-.19z" fill="#fff"/>
</svg>
